<svg height="644.644" version="1.1" width="644" xmlns="http://www.w3.org/2000/svg" style="overflow: hidden; position: relative; left: -0.15625px;" viewBox="0 0 644 644.644" preserveAspectRatio="xMinYMin"><rect x="-2000" y="-2002" width="5000" height="5005" r="0" rx="0" ry="0" fill="#ffffff" stroke="none" transform="matrix(0.644,0,0,0.644,0,0)" stroke-width="1.5527950310559007" style="-webkit-tap-highlight-color: rgba(0, 0, 0, 0); fill-opacity: 0;" fill-opacity="0"></rect><path fill="#cecece" stroke="#ffffff" d="M232.6,219.1L233.2,218.6L252.39999999999998,199.5L281.5,170.8L361.9,91.20000000000002L369.2,84.20000000000002L371.09999999999997,82.30000000000001L388.9,65.10000000000001L408.2,46.50000000000001L424.5,61.7L457.9,94.5L496.5,132.3L502.7,139.10000000000002L521.8,158.3L541.6999999999999,179L541.9999999999999,179.3L559.7999999999998,197L627.6999999999998,264.5L752.4999999999998,388.5L776.1999999999998,412.1L787.6999999999998,423.90000000000003L865.5999999999998,503.6L860.6999999999998,508.5L831.1999999999998,538L827.9999999999998,541.1L735.8999999999997,633.8000000000001L725.4999999999998,644.3000000000001L711.5999999999998,656.8000000000001L644.9999999999998,725.3000000000001L621.8999999999997,749.1L575.9999999999998,792L550.6999999999998,820.1L545.7999999999998,821.9L415.09999999999985,955.0999999999999L415.49999999999983,914.1999999999999L420.79999999999984,854.4999999999999L418.29999999999984,848.1999999999999L414.79999999999984,822.3L418.29999999999984,790.1999999999999L414.39999999999986,774.0999999999999L407.4999999999999,767.3999999999999L399.4999999999999,769.6999999999998L394.5999999999999,762.9999999999998L394.2999999999999,745.9999999999998L396.9999999999999,738.3999999999997L416.6999999999999,742.6999999999997L430.59999999999985,737.2999999999997L440.49999999999983,692.4999999999998L432.49999999999983,662.8999999999997L414.09999999999985,630.8999999999997L414.79999999999984,613.8999999999997L409.59999999999985,600.0999999999998L392.89999999999986,582.1999999999998L389.6999999999999,599.5999999999998L379.9999999999999,602.2999999999998L372.39999999999986,591.0999999999998L373.09999999999985,582.1999999999998L362.59999999999985,564.7999999999998L358.79999999999984,560.7999999999998L348.1999999999998,560.4999999999999L329.99999999999983,522.3999999999999L325.8999999999998,507.9999999999999L316.7999999999998,475.0999999999999L309.5999999999998,469.8999999999999L305.1999999999998,468.0999999999999L264.99999999999983,462.9999999999999L237.19999999999982,452.6999999999999L224.99999999999983,445.09999999999985L198.89999999999984,421.89999999999986L191.29999999999984,413.89999999999986L181.19999999999985,386.1999999999999L156.49999999999986,358.89999999999986L145.39999999999986,342.39999999999986L140.89999999999986,326.79999999999984L134.39999999999986,318.09999999999985L187.49999999999986,264.1999999999999L200.69999999999985,252.9999999999999L232.59999999999985,219.09999999999988Z" class="sm_state_DC" opacity="1" stroke-opacity="1" stroke-width="1.875" stroke-linejoin="round" transform="matrix(0.644,0,0,0.644,0,0)" style="-webkit-tap-highlight-color: rgba(0, 0, 0, 0); opacity: 1; cursor: default; stroke-opacity: 1; stroke-linejoin: round; fill-opacity: 1;" fill-opacity="1"></path><path fill="#ff0067" stroke="#ffffff" d="M354.1,491.8L354.3,481.90000000000003L364.3,483.3L365.7,498L359.09999999999997,501.6L354.09999999999997,491.8Z" class="sm_state_20566" opacity="1" stroke-opacity="1" stroke-width="1.875" stroke-linejoin="round" transform="matrix(0.644,0,0,0.644,0,0)" style="-webkit-tap-highlight-color: rgba(0, 0, 0, 0); opacity: 1; cursor: pointer; stroke-opacity: 1; stroke-linejoin: round; fill-opacity: 1;" fill-opacity="1"></path><path fill="#ff0067" stroke="#ffffff" d="M474.5,506.9L481.5,503.9L497.9,509.7L489.59999999999997,513.5L489.59999999999997,521.6L474.49999999999994,521.8000000000001L474.49999999999994,506.9000000000001Z" class="sm_state_20565" opacity="1" stroke-opacity="1" stroke-width="1.875" stroke-linejoin="round" transform="matrix(0.644,0,0,0.644,0,0)" style="-webkit-tap-highlight-color: rgba(0, 0, 0, 0); opacity: 1; cursor: pointer; stroke-opacity: 1; stroke-linejoin: round; fill-opacity: 1;" fill-opacity="1"></path><path fill="#ff0067" stroke="#ffffff" d="M467.2,527.1L453.09999999999997,527.1L461.2,520.4L467.2,527.1Z" class="sm_state_20560" opacity="1" stroke-opacity="1" stroke-width="1.875" stroke-linejoin="round" transform="matrix(0.644,0,0,0.644,0,0)" style="-webkit-tap-highlight-color: rgba(0, 0, 0, 0); opacity: 1; cursor: pointer; stroke-opacity: 1; stroke-linejoin: round; fill-opacity: 1;" fill-opacity="1"></path><path fill="#ff0067" stroke="#ffffff" d="M467.2,527.1L474.5,527.1L474.5,532.6L467.2,527.1Z" class="sm_state_20553" opacity="1" stroke-opacity="1" stroke-width="1.875" stroke-linejoin="round" transform="matrix(0.644,0,0,0.644,0,0)" style="-webkit-tap-highlight-color: rgba(0, 0, 0, 0); opacity: 1; cursor: pointer; stroke-opacity: 1; stroke-linejoin: round; fill-opacity: 1;" fill-opacity="1"></path><path fill="#ff0067" stroke="#ffffff" d="M388.4,500.6L394.5,506.8L388.4,506.8L388.4,500.6Z" class="sm_state_20551" opacity="1" stroke-opacity="1" stroke-width="1.875" stroke-linejoin="round" transform="matrix(0.644,0,0,0.644,0,0)" style="-webkit-tap-highlight-color: rgba(0, 0, 0, 0); opacity: 1; cursor: pointer; stroke-opacity: 1; stroke-linejoin: round; fill-opacity: 1;" fill-opacity="1"></path><path fill="#ff0067" stroke="#ffffff" d="M538.4,517L538.5,533.9L530.2,526.9L530.1,517L538.4,517Z" class="sm_state_20540" opacity="1" stroke-opacity="1" stroke-width="1.875" stroke-linejoin="round" transform="matrix(0.644,0,0,0.644,0,0)" style="-webkit-tap-highlight-color: rgba(0, 0, 0, 0); opacity: 1; cursor: pointer; stroke-opacity: 1; stroke-linejoin: round; fill-opacity: 1;" fill-opacity="1"></path><path fill="#ff0067" stroke="#ffffff" d="M388.4,492.5L388.4,500.6L380.9,500.6L383.79999999999995,489.3L388.4,492.5Z" class="sm_state_20520" opacity="1" stroke-opacity="1" stroke-width="1.875" stroke-linejoin="round" transform="matrix(0.644,0,0,0.644,0,0)" style="-webkit-tap-highlight-color: rgba(0, 0, 0, 0); opacity: 1; cursor: pointer; stroke-opacity: 1; stroke-linejoin: round; fill-opacity: 1;" fill-opacity="1"></path><path fill="#ff0067" stroke="#ffffff" d="M388.4,500.6L388.4,506.8L380.9,506.8L380.9,500.6L388.4,500.6Z" class="sm_state_20418" opacity="1" stroke-opacity="1" stroke-width="1.875" stroke-linejoin="round" transform="matrix(0.644,0,0,0.644,0,0)" style="-webkit-tap-highlight-color: rgba(0, 0, 0, 0); opacity: 1; cursor: pointer; stroke-opacity: 1; stroke-linejoin: round; fill-opacity: 1;" fill-opacity="1"></path><path fill="#ff0067" stroke="#ffffff" d="M538.7,647L534.2,655.8L526.5,681.5L519.3,695L503.49999999999994,690.3L510.79999999999995,683.5999999999999L515.8,670.1999999999999L513.4,658.9L497.59999999999997,668.4L492.7,681.4L484.7,692.8L497.2,661.9L524,640.1L537.8,614.4L544.5999999999999,628.4L538.6999999999999,647Z" class="sm_state_20373" opacity="1" stroke-opacity="1" stroke-width="1.875" stroke-linejoin="round" transform="matrix(0.644,0,0,0.644,0,0)" style="-webkit-tap-highlight-color: rgba(0, 0, 0, 0); opacity: 1; cursor: pointer; stroke-opacity: 1; stroke-linejoin: round; fill-opacity: 1;" fill-opacity="1"></path><path fill="#ff0067" stroke="#ffffff" d="M480.5,610.1L477.5,598.5L500.8,596.4L497.40000000000003,607.8L496.20000000000005,650.6999999999999L480.6,661.9999999999999L480.5,610.0999999999999Z" class="sm_state_20319" opacity="1" stroke-opacity="1" stroke-width="1.875" stroke-linejoin="round" transform="matrix(0.644,0,0,0.644,0,0)" style="-webkit-tap-highlight-color: rgba(0, 0, 0, 0); opacity: 1; cursor: pointer; stroke-opacity: 1; stroke-linejoin: round; fill-opacity: 1;" fill-opacity="1"></path><path fill="#ff0067" stroke="#ffffff" d="M484.5,304.5L497.6,293.9L510.8,273.29999999999995L522.7,282.19999999999993L521.8000000000001,290.0999999999999L527.7,304.7999999999999L529.5,318.3999999999999L526.4,332.0999999999999L498.2,332.5999999999999L487.09999999999997,334.9999999999999L484.09999999999997,318.7999999999999L484.49999999999994,304.4999999999999Z" class="sm_state_20317" opacity="1" stroke-opacity="1" stroke-width="1.875" stroke-linejoin="round" transform="matrix(0.644,0,0,0.644,0,0)" style="-webkit-tap-highlight-color: rgba(0, 0, 0, 0); opacity: 1; cursor: pointer; stroke-opacity: 1; stroke-linejoin: round; fill-opacity: 1;" fill-opacity="1"></path><path fill="#ff0067" stroke="#ffffff" d="M394.5,506.8L388.4,500.6L388.4,492.5L399.59999999999997,500.5L405.59999999999997,506.8L394.49999999999994,506.8Z" class="sm_state_20245" opacity="1" stroke-opacity="1" stroke-width="1.875" stroke-linejoin="round" transform="matrix(0.644,0,0,0.644,0,0)" style="-webkit-tap-highlight-color: rgba(0, 0, 0, 0); opacity: 1; cursor: pointer; stroke-opacity: 1; stroke-linejoin: round; fill-opacity: 1;" fill-opacity="1"></path><path fill="#ff0067" stroke="#ffffff" d="M399.6,500.5L399.6,492.1L405.6,492.1L399.6,500.5Z" class="sm_state_20240" opacity="1" stroke-opacity="1" stroke-width="1.875" stroke-linejoin="round" transform="matrix(0.644,0,0,0.644,0,0)" style="-webkit-tap-highlight-color: rgba(0, 0, 0, 0); opacity: 1; cursor: pointer; stroke-opacity: 1; stroke-linejoin: round; fill-opacity: 1;" fill-opacity="1"></path><path fill="#ff0067" stroke="#ffffff" d="M439.6,506.8L433.70000000000005,506.90000000000003L433.70000000000005,491.70000000000005L439.6,491.6L439.6,506.8Z" class="sm_state_20230" opacity="1" stroke-opacity="1" stroke-width="1.875" stroke-linejoin="round" transform="matrix(0.644,0,0,0.644,0,0)" style="-webkit-tap-highlight-color: rgba(0, 0, 0, 0); opacity: 1; cursor: pointer; stroke-opacity: 1; stroke-linejoin: round; fill-opacity: 1;" fill-opacity="1"></path><path fill="#ff0067" stroke="#ffffff" d="M453.1,527.1L447.70000000000005,538.6L439.40000000000003,538.6L439.3,527.8000000000001L453.1,527.1Z" class="sm_state_20228" opacity="1" stroke-opacity="1" stroke-width="1.875" stroke-linejoin="round" transform="matrix(0.644,0,0,0.644,0,0)" style="-webkit-tap-highlight-color: rgba(0, 0, 0, 0); opacity: 1; cursor: pointer; stroke-opacity: 1; stroke-linejoin: round; fill-opacity: 1;" fill-opacity="1"></path><path fill="#ff0067" stroke="#ffffff" d="M546.1,329.4L540.3000000000001,289.5L559.2,289.6L569,318.20000000000005L567.8,321.30000000000007L546.0999999999999,329.4000000000001Z" class="sm_state_20064" opacity="1" stroke-opacity="1" stroke-width="1.875" stroke-linejoin="round" transform="matrix(0.644,0,0,0.644,0,0)" style="-webkit-tap-highlight-color: rgba(0, 0, 0, 0); opacity: 1; cursor: pointer; stroke-opacity: 1; stroke-linejoin: round; fill-opacity: 1;" fill-opacity="1"></path><path fill="#ff0067" stroke="#ffffff" d="M274,441.1L276,414.90000000000003L296.6,415.3L297.40000000000003,430.2L302.1,445.5L279.5,445.1L274,441.1Z" class="sm_state_20057" opacity="1" stroke-opacity="1" stroke-width="1.875" stroke-linejoin="round" transform="matrix(0.644,0,0,0.644,0,0)" style="-webkit-tap-highlight-color: rgba(0, 0, 0, 0); opacity: 1; cursor: pointer; stroke-opacity: 1; stroke-linejoin: round; fill-opacity: 1;" fill-opacity="1"></path><path fill="#ff0067" stroke="#ffffff" d="M519.2,538.2L519,551.6L508.2,547.5L513.2,538.2L519.2,538.2Z" class="sm_state_20053" opacity="1" stroke-opacity="1" stroke-width="1.875" stroke-linejoin="round" transform="matrix(0.644,0,0,0.644,0,0)" style="-webkit-tap-highlight-color: rgba(0, 0, 0, 0); opacity: 1; cursor: pointer; stroke-opacity: 1; stroke-linejoin: round; fill-opacity: 1;" fill-opacity="1"></path><path fill="#ff0067" stroke="#ffffff" d="M383.8,489.3L380.90000000000003,500.6L380.90000000000003,506.8L356.40000000000003,503.3L366.8,516L367.90000000000003,523.4L347.40000000000003,533L338.8,519.3L328,515.5L325.9,508L316.79999999999995,475.1L309.59999999999997,469.90000000000003L311.79999999999995,467.00000000000006L332.59999999999997,462.40000000000003L346.99999999999994,465.6L353.79999999999995,456.8L364.4,433.6L376.4,428.5L388.59999999999997,425.4L388.59999999999997,439.2L380.99999999999994,448L388.49999999999994,454.8L388.49999999999994,460.3L388.49999999999994,465.6L388.49999999999994,468.40000000000003L388.49999999999994,473.40000000000003L383.79999999999995,489.3ZM354.1,491.8L359.1,501.6L365.70000000000005,498L364.30000000000007,483.3L354.30000000000007,481.90000000000003L354.1000000000001,491.8Z" class="sm_state_20037" opacity="1" stroke-opacity="1" stroke-width="1.875" stroke-linejoin="round" transform="matrix(0.644,0,0,0.644,0,0)" style="-webkit-tap-highlight-color: rgba(0, 0, 0, 0); opacity: 1; cursor: pointer; stroke-opacity: 1; stroke-linejoin: round; fill-opacity: 1;" fill-opacity="1"></path><path fill="#ff0067" stroke="#ffffff" d="M423.7,421.9L423.7,460.29999999999995L405.8,460.29999999999995L405.8,454.79999999999995L388.5,454.79999999999995L381,447.99999999999994L388.6,439.19999999999993L388.6,425.3999999999999L388.6,421.7999999999999L423.70000000000005,421.8999999999999Z" class="sm_state_20036" opacity="1" stroke-opacity="1" stroke-width="1.875" stroke-linejoin="round" transform="matrix(0.644,0,0,0.644,0,0)" style="-webkit-tap-highlight-color: rgba(0, 0, 0, 0); opacity: 1; cursor: pointer; stroke-opacity: 1; stroke-linejoin: round; fill-opacity: 1;" fill-opacity="1"></path><path fill="#ff0067" stroke="#ffffff" d="M484.2,694L484.7,692.8L492.7,681.4L497.59999999999997,668.4L513.4,658.9L515.8,670.1999999999999L510.79999999999995,683.5999999999999L503.49999999999994,690.3L519.3,695L526.5,681.5L534.2,655.8L538.7,647L541.4000000000001,648.8L535.9000000000001,680.5L539.4000000000001,688L555.7,684.7L554.8000000000001,680L564.3000000000001,667.7L602.6,699.4000000000001L588.1,719.0000000000001L615.5,709.9000000000001L624,729.6000000000001L629.7,730.8000000000002L645,725.3000000000002L621.9,749.1000000000001L576,792.0000000000001L550.7,820.1000000000001L545.8000000000001,821.9000000000001L473.00000000000006,896.1000000000001L471.40000000000003,875.6000000000001L461.1,870.4000000000001L453.8,845.8000000000001L456.90000000000003,800.4000000000001L459.6,784.4000000000001L464.90000000000003,770.2L470.50000000000006,737.6L476.70000000000005,712.5L484.20000000000005,694Z" class="sm_state_20032" opacity="1" stroke-opacity="1" stroke-width="1.875" stroke-linejoin="round" transform="matrix(0.644,0,0,0.644,0,0)" style="-webkit-tap-highlight-color: rgba(0, 0, 0, 0); opacity: 1; cursor: pointer; stroke-opacity: 1; stroke-linejoin: round; fill-opacity: 1;" fill-opacity="1"></path><path fill="#ff0067" stroke="#ffffff" d="M388.4,506.8L394.5,506.8L405.6,506.8L413.40000000000003,506.8L433.70000000000005,506.90000000000003L439.6,506.8L474.5,506.90000000000003L474.5,521.8000000000001L489.6,521.6L489.6,513.5L497.90000000000003,509.7L508.20000000000005,512.5L508.80000000000007,521L519.2,527L519.2,538.2L513.2,538.2L508.20000000000005,547.5L519,551.6L519.1,596.4L513.6,596.4L515.5,617.6L524.9,607.7L531.6999999999999,611.3000000000001L537.8,614.4000000000001L524,640.1000000000001L497.2,661.9000000000001L484.7,692.8000000000001L484.2,694.0000000000001L471.8,668.4000000000001L472,663.8000000000001L450.3,612.1L441.1,595.1L430.3,580.9L418.5,569.6L394.7,551.2L367.9,523.4000000000001L366.79999999999995,516.0000000000001L356.4,503.3000000000001L380.9,506.8000000000001L388.4,506.8000000000001ZM453.09999999999997,527.1L439.29999999999995,527.8000000000001L439.4,538.6L447.7,538.6L453.09999999999997,527.1L467.2,527.1L474.5,532.6L474.5,527.1L467.2,527.1L461.2,520.4L453.09999999999997,527.1ZM480.49999999999994,610.1L480.59999999999997,662L496.2,650.7L497.4,607.8000000000001L500.79999999999995,596.4000000000001L477.49999999999994,598.5000000000001L480.49999999999994,610.1000000000001ZM362.5999999999999,564.8000000000001L358.7999999999999,560.8000000000001L348.1999999999999,560.5000000000001L329.9999999999999,522.4000000000001L327.9999999999999,515.5000000000001L338.7999999999999,519.3000000000001L347.3999999999999,533.0000000000001L351.0999999999999,539.4000000000001L388.69999999999993,578.0000000000001L378.69999999999993,583.5000000000001L373.3999999999999,572.8000000000001L362.5999999999999,564.8000000000001Z" class="sm_state_20024" opacity="1" stroke-opacity="1" stroke-width="1.875" stroke-linejoin="round" transform="matrix(0.644,0,0,0.644,0,0)" style="-webkit-tap-highlight-color: rgba(0, 0, 0, 0); opacity: 1; cursor: pointer; stroke-opacity: 1; stroke-linejoin: round; fill-opacity: 1;" fill-opacity="1"></path><path fill="#ff0067" stroke="#ffffff" d="M531.7,611.3L538.8000000000001,601.5999999999999L566.4000000000001,605.1999999999999L576.9000000000001,604.9L606.4000000000001,583.5L627.0000000000001,574.8L644.8000000000001,585L662.7,583.4L673.1,586.8L689.1,585L700.7,593.8L729,592.5999999999999L759.2,610.3999999999999L735.9000000000001,633.7999999999998L725.5000000000001,644.2999999999998L711.6000000000001,656.7999999999998L645.0000000000001,725.2999999999998L629.7000000000002,730.7999999999998L624.0000000000001,729.5999999999998L615.5000000000001,709.8999999999997L588.1000000000001,718.9999999999998L602.6000000000001,699.3999999999997L564.3000000000002,667.6999999999997L554.8000000000002,679.9999999999997L555.7000000000002,684.6999999999997L539.4000000000002,687.9999999999997L535.9000000000002,680.4999999999997L541.4000000000002,648.7999999999996L538.7000000000002,646.9999999999997L544.6000000000001,628.3999999999996L537.8000000000002,614.3999999999996L531.7000000000002,611.2999999999996Z" class="sm_state_20020" opacity="1" stroke-opacity="1" stroke-width="1.875" stroke-linejoin="round" transform="matrix(0.644,0,0,0.644,0,0)" style="-webkit-tap-highlight-color: rgba(0, 0, 0, 0); opacity: 1; cursor: pointer; stroke-opacity: 1; stroke-linejoin: round; fill-opacity: 1;" fill-opacity="1"></path><path fill="#ff0067" stroke="#ffffff" d="M627,574.8L643.5,568L666.1,537.5L678,516.8L683.2,492.49999999999994L682,473.79999999999995L696.7,443.99999999999994L708.9000000000001,422.59999999999997L712.0000000000001,407.29999999999995L738.5000000000001,403.4L745.8000000000001,396.2L752.5000000000001,388.5L776.2000000000002,412.1L787.7000000000002,423.90000000000003L865.6000000000001,503.6L860.7000000000002,508.5L831.2000000000002,538L828.0000000000001,541.1L759.2000000000002,610.4L729.0000000000001,592.6L700.7000000000002,593.8000000000001L689.1000000000001,585.0000000000001L673.1000000000001,586.8000000000001L662.7000000000002,583.4000000000001L644.8000000000002,585.0000000000001L627.0000000000002,574.8000000000001Z" class="sm_state_20019" opacity="1" stroke-opacity="1" stroke-width="1.875" stroke-linejoin="round" transform="matrix(0.644,0,0,0.644,0,0)" style="-webkit-tap-highlight-color: rgba(0, 0, 0, 0); opacity: 1; cursor: pointer; stroke-opacity: 1; stroke-linejoin: round; fill-opacity: 1;" fill-opacity="1"></path><path fill="#ff0067" stroke="#ffffff" d="M627.7,264.5L752.5,388.5L745.8,396.2L703.9,392.09999999999997L625.8,388.4L613.6999999999999,394.4L578.9999999999999,407.7L575.1999999999999,411.4L545.9999999999999,424.9L552.7999999999998,402.7L567.5999999999998,365.2L569.2999999999998,357.3L591.9999999999999,357.3L606.6999999999999,355.1L612.0999999999999,346.40000000000003L610.1999999999999,315.50000000000006L605.9999999999999,296.1000000000001L618.6999999999999,296.30000000000007L618.9,278.50000000000006L627.6999999999999,264.50000000000006Z" class="sm_state_20018" opacity="1" stroke-opacity="1" stroke-width="1.875" stroke-linejoin="round" transform="matrix(0.644,0,0,0.644,0,0)" style="-webkit-tap-highlight-color: rgba(0, 0, 0, 0); opacity: 1; cursor: pointer; stroke-opacity: 1; stroke-linejoin: round; fill-opacity: 1;" fill-opacity="1"></path><path fill="#ff0067" stroke="#ffffff" d="M627.7,264.5L618.9000000000001,278.5L618.7,296.3L606,296.1L610.2,315.5L612.1,346.4L606.7,355.09999999999997L592,357.29999999999995L569.3,357.29999999999995L567.5999999999999,365.19999999999993L563.8999999999999,371.79999999999995L548.6999999999998,371.59999999999997L548.6999999999998,357.2L537.4999999999998,356.8L528.7999999999997,350.90000000000003L519.5999999999997,352.40000000000003L526.3999999999996,332.1L529.4999999999997,318.40000000000003L527.6999999999997,304.8L521.7999999999997,290.1L522.6999999999997,282.20000000000005L533.8999999999997,289.40000000000003L533.7999999999997,267.40000000000003L549.6999999999997,261.70000000000005L544.6999999999997,244.20000000000005L561.6999999999997,236.40000000000003L592.7999999999997,229.80000000000004L627.6999999999997,264.50000000000006ZM546.1,329.4L567.8000000000001,321.29999999999995L569.0000000000001,318.19999999999993L559.2000000000002,289.5999999999999L540.3000000000002,289.4999999999999L546.1000000000001,329.39999999999986Z" class="sm_state_20017" opacity="1" stroke-opacity="1" stroke-width="1.875" stroke-linejoin="round" transform="matrix(0.644,0,0,0.644,0,0)" style="-webkit-tap-highlight-color: rgba(0, 0, 0, 0); opacity: 1; cursor: pointer; stroke-opacity: 1; stroke-linejoin: round; fill-opacity: 1;" fill-opacity="1"></path><path fill="#ff0067" stroke="#ffffff" d="M185.7,398.6L181.2,386.20000000000005L156.5,358.90000000000003L145.4,342.40000000000003L140.9,326.8L134.4,318.1L187.5,264.20000000000005L200.7,253.00000000000006L232.6,219.10000000000005L235.29999999999998,216.50000000000006L237.39999999999998,219.30000000000007L251.2,216.60000000000008L291.4,216.80000000000007L293.09999999999997,218.70000000000007L302.09999999999997,238.40000000000006L298.7,254.00000000000006L299,301.1000000000001L305.4,296.9000000000001L319.9,301.1000000000001L319.9,348.6000000000001L281.79999999999995,348.6000000000001L276.19999999999993,354.1000000000001L269.29999999999995,345.50000000000006L260.4,348.6000000000001L224.89999999999998,349.6000000000001L215.29999999999998,356.2000000000001L207.39999999999998,371.8000000000001L207.99999999999997,377.10000000000014L185.69999999999996,398.60000000000014Z" class="sm_state_20016" opacity="1" stroke-opacity="1" stroke-width="1.875" stroke-linejoin="round" transform="matrix(0.644,0,0,0.644,0,0)" style="-webkit-tap-highlight-color: rgba(0, 0, 0, 0); opacity: 1; cursor: pointer; stroke-opacity: 1; stroke-linejoin: round; fill-opacity: 1;" fill-opacity="1"></path><path fill="#ff0067" stroke="#ffffff" d="M399.4,197.4L409.4,204.9L403.9,212.1L403.29999999999995,227.9L386.79999999999995,249.5L397.09999999999997,257.7L390.29999999999995,268.2L377.09999999999997,273.7L372.2,266.7L370.4,251.7L365.7,240.79999999999998L351.3,228.7L345.1,214.6L321.1,209.6L313.5,218.1L306.7,210.7L301.59999999999997,218.89999999999998L293.09999999999997,218.7L291.4,216.79999999999998L251.2,216.6L237.39999999999998,219.29999999999998L235.29999999999998,216.49999999999997L361.9,91.19999999999997L369.2,84.19999999999997L371.09999999999997,82.29999999999997L391.59999999999997,95.49999999999997L403.4,96.79999999999997L411.09999999999997,102.89999999999996L408.9,110.09999999999997L395.2,114.39999999999996L397.9,121.79999999999997L411.09999999999997,130.19999999999996L411.09999999999997,150.49999999999997L395.49999999999994,155.29999999999998L388.29999999999995,168.79999999999998L385.09999999999997,182.2L399.4,197.39999999999998Z" class="sm_state_20015" opacity="1" stroke-opacity="1" stroke-width="1.875" stroke-linejoin="round" transform="matrix(0.644,0,0,0.644,0,0)" style="-webkit-tap-highlight-color: rgba(0, 0, 0, 0); opacity: 1; cursor: pointer; stroke-opacity: 1; stroke-linejoin: round; fill-opacity: 1;" fill-opacity="1"></path><path fill="#ff0067" stroke="#ffffff" d="M533.8,170.8L514.5,170.60000000000002L510.9,166.70000000000002L494.5,176.10000000000002L481.5,170.90000000000003L427.5,169.60000000000002L415.9,164.3L416.5,189.70000000000002L399.4,197.4L385.09999999999997,182.20000000000002L388.29999999999995,168.8L395.49999999999994,155.3L411.09999999999997,150.5L411.09999999999997,130.2L397.9,121.79999999999998L395.2,114.39999999999998L408.9,110.09999999999998L411.09999999999997,102.89999999999998L403.4,96.79999999999998L391.59999999999997,95.49999999999999L371.09999999999997,82.29999999999998L388.9,65.09999999999998L408.2,46.49999999999998L424.5,61.699999999999974L457.9,94.49999999999997L496.5,132.29999999999995L502.7,139.09999999999997L521.8,158.29999999999995L533.8,170.79999999999995ZM432.4,142.10000000000002L447.4,147.90000000000003L456.9,142.60000000000002L458.79999999999995,123.10000000000002L439.99999999999994,123.10000000000002L432.3999999999999,142.10000000000002Z" class="sm_state_20012" opacity="1" stroke-opacity="1" stroke-width="1.875" stroke-linejoin="round" transform="matrix(0.644,0,0,0.644,0,0)" style="-webkit-tap-highlight-color: rgba(0, 0, 0, 0); opacity: 1; cursor: pointer; stroke-opacity: 1; stroke-linejoin: round; fill-opacity: 1;" fill-opacity="1"></path><path fill="#ff0067" stroke="#ffffff" d="M522.7,282.2L510.80000000000007,273.3L497.6000000000001,293.90000000000003L484.50000000000006,304.50000000000006L476.30000000000007,303.1000000000001L433.20000000000005,303.50000000000006L427.00000000000006,298.80000000000007L407.1000000000001,309.9000000000001L392.80000000000007,311.30000000000007L374.9000000000001,322.9000000000001L383.5000000000001,314.5000000000001L383.10000000000014,305.4000000000001L369.20000000000016,301.4000000000001L377.10000000000014,273.7000000000001L390.3000000000001,268.2000000000001L397.10000000000014,257.7000000000001L386.8000000000001,249.5000000000001L403.3000000000001,227.90000000000012L403.90000000000015,212.1000000000001L409.40000000000015,204.90000000000012L399.40000000000015,197.40000000000012L416.50000000000017,189.70000000000013L415.90000000000015,164.30000000000013L427.50000000000017,169.60000000000014L481.50000000000017,170.90000000000015L494.50000000000017,176.10000000000014L510.90000000000015,166.70000000000013L514.5000000000001,170.60000000000014L533.8000000000001,170.80000000000013L541.7,179.0000000000001L542,179.30000000000013L559.8,197.0000000000001L592.8,229.80000000000013L561.6999999999999,236.40000000000012L544.6999999999999,244.20000000000013L549.6999999999999,261.70000000000016L533.8,267.40000000000015L533.9,289.40000000000015L522.6999999999999,282.20000000000016Z" class="sm_state_20011" opacity="1" stroke-opacity="1" stroke-width="1.875" stroke-linejoin="round" transform="matrix(0.644,0,0,0.644,0,0)" style="-webkit-tap-highlight-color: rgba(0, 0, 0, 0); opacity: 1; cursor: pointer; stroke-opacity: 1; stroke-linejoin: round; fill-opacity: 1;" fill-opacity="1"></path><path fill="#ff0067" stroke="#ffffff" d="M484.5,304.5L484.1,318.8L487.1,335L498.20000000000005,332.6L526.4000000000001,332.1L519.6000000000001,352.40000000000003L501.90000000000015,354.20000000000005L481.8000000000001,341.70000000000005L455.40000000000015,345.20000000000005L447.40000000000015,343.6L404.20000000000016,344.5L395.00000000000017,348.9L386.70000000000016,331.09999999999997L374.90000000000015,322.9L392.8000000000001,311.29999999999995L407.10000000000014,309.9L427.0000000000001,298.79999999999995L433.2000000000001,303.49999999999994L476.3000000000001,303.09999999999997L484.5000000000001,304.49999999999994Z" class="sm_state_20010" opacity="1" stroke-opacity="1" stroke-width="1.875" stroke-linejoin="round" transform="matrix(0.644,0,0,0.644,0,0)" style="-webkit-tap-highlight-color: rgba(0, 0, 0, 0); opacity: 1; cursor: pointer; stroke-opacity: 1; stroke-linejoin: round; fill-opacity: 1;" fill-opacity="1"></path><path fill="#ff0067" stroke="#ffffff" d="M453.1,421.8L423.70000000000005,421.90000000000003L388.6,421.8L390,400.8L376.1,376.40000000000003L381.3,371.20000000000005L378.2,345.70000000000005L390.59999999999997,355.20000000000005L394.99999999999994,348.90000000000003L404.19999999999993,344.50000000000006L447.3999999999999,343.6000000000001L455.3999999999999,345.2000000000001L456.69999999999993,352.1000000000001L456.69999999999993,415.2000000000001L453.0999999999999,421.8000000000001Z" class="sm_state_20009" opacity="1" stroke-opacity="1" stroke-width="1.875" stroke-linejoin="round" transform="matrix(0.644,0,0,0.644,0,0)" style="-webkit-tap-highlight-color: rgba(0, 0, 0, 0); opacity: 1; cursor: pointer; stroke-opacity: 1; stroke-linejoin: round; fill-opacity: 1;" fill-opacity="1"></path><path fill="#ff0067" stroke="#ffffff" d="M377.1,273.7L369.20000000000005,301.4L383.1,305.4L383.5,314.5L374.9,322.9L386.7,331.09999999999997L395,348.9L390.6,355.2L378.20000000000005,345.7L381.30000000000007,371.2L376.1000000000001,376.4L390.00000000000006,400.79999999999995L388.6000000000001,421.79999999999995L388.6000000000001,425.4L376.4000000000001,428.5L345.9000000000001,402.4L345.30000000000007,389.7L315.1000000000001,388.2L306.1000000000001,379.2L304.30000000000007,366L320.20000000000005,369.7L319.90000000000003,348.59999999999997L319.90000000000003,301.09999999999997L305.40000000000003,296.9L299.00000000000006,301.09999999999997L298.70000000000005,253.99999999999997L302.1,238.39999999999998L293.1,218.7L301.6,218.89999999999998L306.70000000000005,210.7L313.50000000000006,218.1L321.1000000000001,209.6L345.1000000000001,214.6L351.30000000000007,228.7L365.70000000000005,240.79999999999998L370.40000000000003,251.7L372.20000000000005,266.7L377.1,273.7Z" class="sm_state_20008" opacity="1" stroke-opacity="1" stroke-width="1.875" stroke-linejoin="round" transform="matrix(0.644,0,0,0.644,0,0)" style="-webkit-tap-highlight-color: rgba(0, 0, 0, 0); opacity: 1; cursor: pointer; stroke-opacity: 1; stroke-linejoin: round; fill-opacity: 1;" fill-opacity="1"></path><path fill="#ff0067" stroke="#ffffff" d="M191.3,413.9L185.70000000000002,398.59999999999997L208.00000000000003,377.09999999999997L207.40000000000003,371.79999999999995L215.30000000000004,356.19999999999993L224.90000000000003,349.5999999999999L260.40000000000003,348.5999999999999L269.3,345.4999999999999L276.2,354.0999999999999L281.8,348.5999999999999L319.90000000000003,348.5999999999999L320.20000000000005,369.69999999999993L304.30000000000007,365.99999999999994L306.1000000000001,379.19999999999993L315.1000000000001,388.19999999999993L345.30000000000007,389.69999999999993L345.9000000000001,402.3999999999999L376.4000000000001,428.49999999999994L364.4000000000001,433.59999999999997L353.80000000000007,456.79999999999995L347.00000000000006,465.59999999999997L332.6000000000001,462.4L311.80000000000007,467L309.6000000000001,469.9L305.2000000000001,468.09999999999997L265.0000000000001,462.99999999999994L237.2000000000001,452.69999999999993L225.0000000000001,445.0999999999999L198.90000000000012,421.8999999999999L191.30000000000013,413.8999999999999ZM274,441.09999999999997L279.5,445.09999999999997L302.1,445.49999999999994L297.40000000000003,430.19999999999993L296.6,415.29999999999995L276,414.9L274,441.09999999999997Z" class="sm_state_20007" opacity="1" stroke-opacity="1" stroke-width="1.875" stroke-linejoin="round" transform="matrix(0.644,0,0,0.644,0,0)" style="-webkit-tap-highlight-color: rgba(0, 0, 0, 0); opacity: 1; cursor: pointer; stroke-opacity: 1; stroke-linejoin: round; fill-opacity: 1;" fill-opacity="1"></path><path fill="#ff0067" stroke="#ffffff" d="M399.6,500.5L405.6,492.1L399.6,492.1L399.6,500.5L388.40000000000003,492.5L383.8,489.3L388.5,473.40000000000003L388.5,468.40000000000003L388.5,465.6L388.5,460.3L388.5,454.8L405.8,454.8L405.8,460.3L423.7,460.3L430.4,465.6L428.59999999999997,477.1L428.9,491.90000000000003L418.7,492.1L413.5,492.1L413.4,506.8L405.59999999999997,506.8L399.59999999999997,500.5Z" class="sm_state_20006" opacity="1" stroke-opacity="1" stroke-width="1.875" stroke-linejoin="round" transform="matrix(0.644,0,0,0.644,0,0)" style="-webkit-tap-highlight-color: rgba(0, 0, 0, 0); opacity: 1; cursor: pointer; stroke-opacity: 1; stroke-linejoin: round; fill-opacity: 1;" fill-opacity="1"></path><path fill="#ff0067" stroke="#ffffff" d="M423.7,421.9L453.09999999999997,421.79999999999995L456.7,421.9L456.7,479.09999999999997L447.7,483.4L439.59999999999997,483.4L428.59999999999997,477.09999999999997L430.4,465.59999999999997L423.7,460.29999999999995L423.7,421.9Z" class="sm_state_20005" opacity="1" stroke-opacity="1" stroke-width="1.875" stroke-linejoin="round" transform="matrix(0.644,0,0,0.644,0,0)" style="-webkit-tap-highlight-color: rgba(0, 0, 0, 0); opacity: 1; cursor: pointer; stroke-opacity: 1; stroke-linejoin: round; fill-opacity: 1;" fill-opacity="1"></path><path fill="#ff0067" stroke="#ffffff" d="M456.7,479.1L474.5,478.5L481.5,483.4L481.5,503.9L474.5,506.9L439.6,506.79999999999995L439.6,491.59999999999997L433.70000000000005,491.7L433.70000000000005,506.9L413.40000000000003,506.79999999999995L413.50000000000006,492.09999999999997L418.70000000000005,492.09999999999997L428.90000000000003,491.9L428.6,477.09999999999997L439.6,483.4L447.70000000000005,483.4L456.70000000000005,479.09999999999997Z" class="sm_state_20004" opacity="1" stroke-opacity="1" stroke-width="1.875" stroke-linejoin="round" transform="matrix(0.644,0,0,0.644,0,0)" style="-webkit-tap-highlight-color: rgba(0, 0, 0, 0); opacity: 1; cursor: pointer; stroke-opacity: 1; stroke-linejoin: round; fill-opacity: 1;" fill-opacity="1"></path><path fill="#ff0067" stroke="#ffffff" d="M530.2,526.9L538.5,533.9L538.4,517L576.1999999999999,517.1L580.0999999999999,519.6L617.4999999999999,517.1L617.4999999999999,507.20000000000005L629.6999999999999,507.20000000000005L629.6999999999999,517.1L677.9999999999999,516.8000000000001L666.0999999999999,537.5000000000001L643.4999999999999,568.0000000000001L626.9999999999999,574.8000000000001L606.3999999999999,583.5000000000001L576.8999999999999,604.9000000000001L566.3999999999999,605.2L538.7999999999998,601.6L531.6999999999998,611.3000000000001L524.8999999999999,607.7L515.4999999999999,617.6L513.5999999999999,596.4L519.0999999999999,596.4L518.9999999999999,551.6L519.1999999999999,538.2L519.1999999999999,527L530.1999999999999,526.9Z" class="sm_state_20003" opacity="1" stroke-opacity="1" stroke-width="1.875" stroke-linejoin="round" transform="matrix(0.644,0,0,0.644,0,0)" style="-webkit-tap-highlight-color: rgba(0, 0, 0, 0); opacity: 1; cursor: pointer; stroke-opacity: 1; stroke-linejoin: round; fill-opacity: 1;" fill-opacity="1"></path><path fill="#ff0067" stroke="#ffffff" d="M538.4,517L530.1,517L530.2,526.9L519.2,527L508.80000000000007,521L508.20000000000005,512.5L522.3000000000001,507.1L524.3000000000001,500L519.2,494.8L519.2,454.90000000000003L512.4000000000001,454.6L519.4000000000001,439L519.6000000000001,352.4L528.8000000000002,350.9L537.5000000000002,356.79999999999995L548.7000000000003,357.19999999999993L548.7000000000003,371.5999999999999L563.9000000000003,371.7999999999999L567.6000000000004,365.1999999999999L552.8000000000004,402.6999999999999L546.0000000000005,424.89999999999986L575.2000000000005,411.39999999999986L579.0000000000005,407.6999999999999L613.7000000000005,394.39999999999986L625.8000000000005,388.39999999999986L703.9000000000005,392.09999999999985L745.8000000000005,396.1999999999999L738.5000000000006,403.39999999999986L712.0000000000006,407.29999999999984L708.9000000000005,422.59999999999985L696.7000000000005,443.99999999999983L682.0000000000005,473.79999999999984L683.2000000000005,492.49999999999983L678.0000000000005,516.7999999999998L629.7000000000005,517.0999999999998L629.7000000000005,507.1999999999998L617.5000000000005,507.1999999999998L617.5000000000005,517.0999999999998L580.1000000000005,519.5999999999998L576.2000000000005,517.0999999999998L538.4000000000005,516.9999999999998Z" class="sm_state_20002" opacity="1" stroke-opacity="1" stroke-width="1.875" stroke-linejoin="round" transform="matrix(0.644,0,0,0.644,0,0)" style="-webkit-tap-highlight-color: rgba(0, 0, 0, 0); opacity: 1; cursor: pointer; stroke-opacity: 1; stroke-linejoin: round; fill-opacity: 1;" fill-opacity="1"></path><path fill="#ff0067" stroke="#ffffff" d="M456.7,479.1L456.7,421.90000000000003L453.09999999999997,421.8L456.7,415.2L456.7,352.09999999999997L455.4,345.2L481.79999999999995,341.7L501.9,354.2L519.6,352.4L519.4,439L512.4,454.6L519.1999999999999,454.90000000000003L519.1999999999999,494.8L524.3,500L522.3,507.1L508.19999999999993,512.5L497.8999999999999,509.7L481.49999999999994,503.9L481.49999999999994,483.4L474.49999999999994,478.5L456.69999999999993,479.1Z" class="sm_state_20001" opacity="1" stroke-opacity="1" stroke-width="1.875" stroke-linejoin="round" transform="matrix(0.644,0,0,0.644,0,0)" style="-webkit-tap-highlight-color: rgba(0, 0, 0, 0); opacity: 1; cursor: pointer; stroke-opacity: 1; stroke-linejoin: round; fill-opacity: 1;" fill-opacity="1"></path><desc style="-webkit-tap-highlight-color: rgba(0, 0, 0, 0);">Created with Raphaël 2.1.0</desc><defs style="-webkit-tap-highlight-color: rgba(0, 0, 0, 0);"></defs></svg>