<svg id="Logo" xmlns="http://www.w3.org/2000/svg" xmlns:xlink="http://www.w3.org/1999/xlink" viewBox="0 0 246.95 46.66">
  <defs>
    <radialGradient id="radial-gradient" cx="153.56" cy="400.01" r="23.4" gradientUnits="userSpaceOnUse">
      <stop offset="0.23" stop-color="#f9be01"/>
      <stop offset="1" stop-color="#fed731"/>
    </radialGradient>
  </defs>
  <title>Logo</title>
  <path d="M176.87,397.34l-5.46,5.46a18.11,18.11,0,0,1-21,15.36l7-7.05a18.85,18.85,0,0,0-1.7-5.11l-11.51,11.52h0l-2.53,2.54a23.33,23.33,0,0,0,35.12-22.72ZM152.18,401a19.12,19.12,0,0,0-1.73-1.53l-19.6,19.61h0l0,0,0,0a2.41,2.41,0,0,0,3.43,3.38l.05-.06h0l19.59-19.58A19.8,19.8,0,0,0,152.18,401Zm-16.31,8.23h0l11.66-11.66a19,19,0,0,0-5-1.8l-7,7a18.1,18.1,0,0,1,14.4-20.27l5.75-5.76a23.34,23.34,0,0,0-22.2,34.87Zm19.34-11.06a20.29,20.29,0,0,1,5.67,11l15.73-15.72-1.11-15.76s-15.85-.42-15.91-.44L144.32,392.5A20.3,20.3,0,0,1,155.21,398.16Zm8.63-2.76-2.48-2.47,2.44-2.44,2.48,2.47Zm5.88-5.88L167.26,392l-2.48-2.47,2.47-2.47Zm-5.88-5.89,2.43,2.43-2.47,2.46-2.43-2.43Zm-3.45,3.45,2.43,2.43L160.38,392,158,389.52Z" transform="translate(-130.09 -376.68)" style="fill: url(#radial-gradient)"/>
  <g>
    <path d="M190.83,411.15l-4.51-32.5v-.09a.47.47,0,0,1,.53-.53h4.61a.49.49,0,0,1,.57.48l2.6,21.89c0,.1.08.14.14.14s.11,0,.14-.14l7.78-21.89a.68.68,0,0,1,.67-.48h4.47a.49.49,0,0,1,.57.48l2.74,21.94c0,.09,0,.14.12.14s.13,0,.17-.14l7.87-21.94A.72.72,0,0,1,220,378h4.32c.41,0,.56.21.43.62l-12.05,32.5a.63.63,0,0,1-.67.48h-4.37a.49.49,0,0,1-.57-.48l-2.64-22.9c0-.09,0-.15-.12-.16s-.14,0-.17.16l-8,22.9a.68.68,0,0,1-.67.48h-4.08A.51.51,0,0,1,190.83,411.15Z" transform="translate(-130.09 -376.68)" style="fill: #1e1e1e"/>
    <path d="M224.05,411.46a.45.45,0,0,1-.1-.41l2.88-23.42a.86.86,0,0,1,.22-.41.57.57,0,0,1,.41-.17h4.27a.47.47,0,0,1,.38.17.46.46,0,0,1,.1.41l-2.83,23.42a.78.78,0,0,1-.24.41.6.6,0,0,1-.43.17h-4.28A.46.46,0,0,1,224.05,411.46ZM228,382.93a2.91,2.91,0,0,1-.79-2.12,3.81,3.81,0,0,1,1.1-2.78,3.66,3.66,0,0,1,2.69-1.1,2.88,2.88,0,0,1,2.11.79,2.82,2.82,0,0,1,.82,2.13,3.81,3.81,0,0,1-1.1,2.76,3.61,3.61,0,0,1-2.69,1.13A2.86,2.86,0,0,1,228,382.93Z" transform="translate(-130.09 -376.68)" style="fill: #1e1e1e"/>
    <path d="M253.31,378.2a.54.54,0,0,1,.4-.17H258a.49.49,0,0,1,.38.17.46.46,0,0,1,.1.41l-4,32.44a.74.74,0,0,1-.21.41.54.54,0,0,1-.41.17h-4.27a.46.46,0,0,1-.39-.17.45.45,0,0,1-.09-.41l.14-1.43c0-.1,0-.16-.05-.2s-.13,0-.19.1a7.52,7.52,0,0,1-5.66,2.49,8,8,0,0,1-5.38-1.77,8.41,8.41,0,0,1-2.69-4.95,17.28,17.28,0,0,1-.29-3.16,19.17,19.17,0,0,1,.2-2.84,20.11,20.11,0,0,1,1.48-5.85,11.67,11.67,0,0,1,3.92-4.95,10.12,10.12,0,0,1,6-1.77,5.74,5.74,0,0,1,4.95,2.4.19.19,0,0,0,.19.07c.06,0,.09-.07.09-.17l1.3-10.41A.72.72,0,0,1,253.31,378.2Zm-2.81,21.14a21.16,21.16,0,0,0,.14-2.25,8.18,8.18,0,0,0-.62-3.46,3.39,3.39,0,0,0-3.27-2.11,4.87,4.87,0,0,0-4,2,11.62,11.62,0,0,0-2.11,5.86,14.62,14.62,0,0,0-.15,2.07,9.14,9.14,0,0,0,.58,3.45,3.74,3.74,0,0,0,3.7,2.3,4.64,4.64,0,0,0,3.93-2.3A12.78,12.78,0,0,0,250.5,399.34Z" transform="translate(-130.09 -376.68)" style="fill: #1e1e1e"/>
    <path d="M276.8,387.27a.65.65,0,0,1,.43-.17h4.27a.49.49,0,0,1,.39.17.46.46,0,0,1,.1.41L279.25,410q-.72,6-4.37,8.57a15.29,15.29,0,0,1-9,2.56A27.21,27.21,0,0,1,263,421c-.32,0-.49-.24-.49-.62l.63-3.94c0-.35.27-.53.72-.53a20.86,20.86,0,0,0,2.4.15,8.48,8.48,0,0,0,5.33-1.44,7,7,0,0,0,2.25-4.76l.05-.38c0-.22-.09-.26-.29-.09a7.68,7.68,0,0,1-5.66,2.11,9.15,9.15,0,0,1-5.3-1.59,7,7,0,0,1-2.91-4.85,16.22,16.22,0,0,1-.14-2.16,31.88,31.88,0,0,1,.24-3.64,22.25,22.25,0,0,1,1.48-6.1,11.09,11.09,0,0,1,3.8-4.68,9.45,9.45,0,0,1,5.57-1.75,6.7,6.7,0,0,1,5.47,2.21c0,.09.08.12.14.09a.29.29,0,0,0,.14-.19l.15-1.15A.52.52,0,0,1,276.8,387.27Zm-2,14.64c.12-.56.25-1.46.38-2.71a21.57,21.57,0,0,0,.24-2.88,11.58,11.58,0,0,0-.1-1.3,3.71,3.71,0,0,0-1.2-2.54,4,4,0,0,0-2.78-1,4.85,4.85,0,0,0-3,1,6.13,6.13,0,0,0-1.95,2.54,14.8,14.8,0,0,0-1.1,4.23,21,21,0,0,0-.19,2.73,6,6,0,0,0,.14,1.44,4.33,4.33,0,0,0,1.39,2.52,4.1,4.1,0,0,0,2.84,1,4.89,4.89,0,0,0,3.07-1,5.18,5.18,0,0,0,1.77-2.5A9.83,9.83,0,0,0,274.79,401.91Z" transform="translate(-130.09 -376.68)" style="fill: #1e1e1e"/>
    <path d="M304.93,400.78a.56.56,0,0,1-.63.58H289.76a.21.21,0,0,0-.24.24,7,7,0,0,0,0,.91,4.6,4.6,0,0,0,.15,1.25q.76,3.45,5,3.5a6.71,6.71,0,0,0,5.37-2.68.63.63,0,0,1,.48-.29.45.45,0,0,1,.34.14l2.54,2.45a.67.67,0,0,1,.24.38.91.91,0,0,1-.19.39,11.25,11.25,0,0,1-4.22,3.26,13.09,13.09,0,0,1-5.47,1.15,9.87,9.87,0,0,1-6-1.68,8.31,8.31,0,0,1-3.12-4.7,12.83,12.83,0,0,1-.48-3.7,20.81,20.81,0,0,1,.19-2.78,18.14,18.14,0,0,1,1.2-5.23,11.54,11.54,0,0,1,4.16-5.31,11.09,11.09,0,0,1,6.45-1.94q9.12,0,9.12,9.74A30.34,30.34,0,0,1,304.93,400.78Zm-12.31-8.37a5.68,5.68,0,0,0-1.9,2.47,9.67,9.67,0,0,0-.62,2.11c-.07.16,0,.24.14.24h9.46a.21.21,0,0,0,.24-.24,8.75,8.75,0,0,0,.05-1,4.28,4.28,0,0,0-.05-.81,4.15,4.15,0,0,0-1.35-2.69,4.35,4.35,0,0,0-3-1A4.9,4.9,0,0,0,292.62,392.41Z" transform="translate(-130.09 -376.68)" style="fill: #1e1e1e"/>
    <path d="M321.8,391.45a.56.56,0,0,1-.41.16h-4.75a.22.22,0,0,0-.24.24L315,403.42a5.66,5.66,0,0,0,0,.82,2.54,2.54,0,0,0,.7,2,3.11,3.11,0,0,0,2.14.63h1.39c.35,0,.53.19.53.58l-.49,3.59a.65.65,0,0,1-.62.63l-2.4.05a9.88,9.88,0,0,1-5-1q-1.68-1-1.68-3.87c0-.22,0-.65.1-1.29l1.68-13.69c0-.15-.07-.24-.2-.24h-2.64c-.35,0-.52-.19-.52-.57l.43-3.36a.77.77,0,0,1,.21-.41.58.58,0,0,1,.41-.17h2.64a.31.31,0,0,0,.29-.24l.67-5.61a.78.78,0,0,1,.22-.41.57.57,0,0,1,.41-.17h4.08a.49.49,0,0,1,.38.17.46.46,0,0,1,.1.41l-.68,5.61c-.06.16,0,.24.2.24H322a.47.47,0,0,1,.38.17.46.46,0,0,1,.1.41L322,391A.91.91,0,0,1,321.8,391.45Z" transform="translate(-130.09 -376.68)" style="fill: #1e1e1e"/>
    <path d="M323.79,411.46a.45.45,0,0,1-.09-.41l4-32.44a.72.72,0,0,1,.22-.41.54.54,0,0,1,.4-.17h4.28a.49.49,0,0,1,.38.17.46.46,0,0,1,.1.41L331.33,393c0,.09,0,.16.05.19s.12,0,.19,0l13.92-14.73a1,1,0,0,1,.72-.34h4.85c.28,0,.43.1.43.29a.63.63,0,0,1-.19.43L339,392.24c-.13.13-.16.24-.1.33L348.08,411a.82.82,0,0,1,.1.29c0,.25-.18.38-.53.38h-4.9a.72.72,0,0,1-.62-.38l-7.39-14.79a.26.26,0,0,0-.15-.12.12.12,0,0,0-.14.08l-4,4.12-.14.34-1.25,10.17a.5.5,0,0,1-.19.41.6.6,0,0,1-.43.17h-4.27A.48.48,0,0,1,323.79,411.46Z" transform="translate(-130.09 -376.68)" style="fill: #1e1e1e"/>
    <path d="M351.25,411.46a.45.45,0,0,1-.1-.41L354,387.63a.72.72,0,0,1,.22-.41.57.57,0,0,1,.41-.17h4.27a.47.47,0,0,1,.38.17.46.46,0,0,1,.1.41l-2.83,23.42a.78.78,0,0,1-.24.41.63.63,0,0,1-.44.17h-4.27A.44.44,0,0,1,351.25,411.46Zm3.91-28.53a2.91,2.91,0,0,1-.79-2.12,3.81,3.81,0,0,1,1.1-2.78,3.64,3.64,0,0,1,2.69-1.1,2.89,2.89,0,0,1,2.11.79,2.82,2.82,0,0,1,.82,2.13,3.78,3.78,0,0,1-1.11,2.76,3.57,3.57,0,0,1-2.68,1.13A2.86,2.86,0,0,1,355.16,382.93Z" transform="translate(-130.09 -376.68)" style="fill: #1e1e1e"/>
    <path d="M376.38,391.45a.57.57,0,0,1-.41.16h-4.75a.22.22,0,0,0-.24.24l-1.44,11.57a4.51,4.51,0,0,0-.05.82,2.57,2.57,0,0,0,.69,2,3.13,3.13,0,0,0,2.14.63h1.39c.35,0,.53.19.53.58l-.48,3.59a.65.65,0,0,1-.62.63l-2.4.05a9.88,9.88,0,0,1-5-1q-1.68-1-1.68-3.87,0-.33.09-1.29l1.68-13.69c0-.15-.06-.24-.19-.24H363c-.35,0-.53-.19-.53-.57l.43-3.36a.86.86,0,0,1,.22-.41.57.57,0,0,1,.41-.17h2.64c.13,0,.22-.08.29-.24l.67-5.61a.77.77,0,0,1,.21-.41.58.58,0,0,1,.41-.17h4.08a.51.51,0,0,1,.39.17.48.48,0,0,1,.09.41l-.67,5.61c-.06.16,0,.24.19.24h4.75a.51.51,0,0,1,.39.17.45.45,0,0,1,.09.41l-.43,3.36A.81.81,0,0,1,376.38,391.45Z" transform="translate(-130.09 -376.68)" style="fill: #1e1e1e"/>
  </g>
</svg>
