<?xml version="1.0" encoding="utf-8"?>
<!-- Generator: Adobe Illustrator 23.0.1, SVG Export Plug-In . SVG Version: 6.00 Build 0)  -->
<svg version="1.1" id="Logo" xmlns="http://www.w3.org/2000/svg" xmlns:xlink="http://www.w3.org/1999/xlink" x="0px" y="0px"
	 viewBox="0 0 324.3 64.6" style="enable-background:new 0 0 324.3 64.6;" xml:space="preserve">
<style type="text/css">
	.st0{fill:url(#SVGID_1_);}
	.st1{fill:#1E1E1E;}
	.st2{fill:#FF0000;}
	.st3{fill:#FFFFFF;}
</style>
<title>Logo</title>
<radialGradient id="SVGID_1_" cx="157.0903" cy="1444.1752" r="23.377" gradientTransform="matrix(1 0 0 1 -130.09 -1410.0417)" gradientUnits="userSpaceOnUse">
	<stop  offset="0.23" style="stop-color:#F9BE01"/>
	<stop  offset="1" style="stop-color:#FED731"/>
</radialGradient>
<path class="st0" d="M50.3,31.5L44.8,37c-1.4,9.9-10.5,16.8-20.4,15.4c-0.2,0-0.4-0.1-0.6-0.1l7-7c-0.3-1.8-0.9-3.5-1.7-5.1
	L17.6,51.6l0,0l-2.5,2.5c11.1,6.6,25.4,3,32-8.1C49.7,41.7,50.8,36.6,50.3,31.5L50.3,31.5z M25.6,35.1c-0.5-0.5-1.1-1.1-1.7-1.5
	L4.2,53.2l0,0l0,0l0,0c-0.9,1-0.8,2.5,0.2,3.4c0.9,0.8,2.3,0.8,3.3,0l0.1-0.1l0,0l19.6-19.6C26.8,36.3,26.2,35.7,25.6,35.1z
	 M9.3,43.4L9.3,43.4L21,31.7c-1.6-0.8-3.3-1.4-5-1.8l-7,7c-1.3-9.5,5-18.4,14.4-20.3l5.8-5.8c-13-1-24.3,8.5-25.3,21.4
	c-0.4,4.7,0.7,9.5,3,13.6L9.3,43.4z M28.6,32.3c3,3,5,6.8,5.7,11L50,27.6l-1.1-15.8L33,11.4L17.7,26.6
	C21.8,27.3,25.7,29.3,28.6,32.3L28.6,32.3z M37.2,29.5L34.7,27l2.4-2.4l2.5,2.5L37.2,29.5z M43.1,23.7l-2.5,2.5l-2.5-2.5l2.5-2.5
	L43.1,23.7z M37.2,17.8l2.4,2.4l-2.5,2.5l-2.4-2.4L37.2,17.8z M33.8,21.2l2.4,2.4l-2.4,2.5l-2.4-2.5L33.8,21.2z"/>
<g>
	<path class="st1" d="M64.2,45.3l-4.5-32.5v-0.1c0-0.3,0.1-0.5,0.4-0.5h0.1h4.6c0.3,0,0.5,0.1,0.6,0.4v0.1L68,34.5
		c0,0.1,0.1,0.1,0.1,0.1s0.1,0,0.1-0.1L76,12.6c0.1-0.3,0.4-0.5,0.7-0.5h4.5c0.3,0,0.5,0.1,0.6,0.4v0.1l2.7,21.9
		c0,0.1,0,0.1,0.1,0.1s0.1,0,0.2-0.1l7.9-21.9c0.1-0.3,0.4-0.5,0.7-0.5h4.3c0.4,0,0.6,0.2,0.4,0.6l-12,32.5
		c-0.1,0.3-0.4,0.5-0.7,0.5H81c-0.3,0-0.5-0.1-0.6-0.4v-0.1l-2.6-22.9c0-0.1,0-0.1-0.1-0.2s-0.1,0-0.2,0.2l-8,22.9
		c-0.1,0.3-0.4,0.5-0.7,0.5h-4.1C64.5,45.8,64.3,45.6,64.2,45.3L64.2,45.3z"/>
	<path class="st1" d="M97.4,45.6c-0.1-0.1-0.1-0.3-0.1-0.4l2.9-23.4c0-0.2,0.1-0.3,0.2-0.4s0.3-0.2,0.4-0.2h4.3
		c0.1,0,0.3,0.1,0.4,0.2s0.1,0.3,0.1,0.4l-2.8,23.4c0,0.2-0.1,0.3-0.2,0.4c-0.1,0.1-0.3,0.2-0.4,0.2h-4.3
		C97.7,45.8,97.5,45.7,97.4,45.6z M101.4,17.1c-0.5-0.6-0.8-1.3-0.8-2.1c0-1,0.4-2,1.1-2.8c0.7-0.7,1.7-1.1,2.7-1.1
		c0.8,0,1.5,0.3,2.1,0.8c0.6,0.6,0.9,1.3,0.8,2.1c0,1-0.4,2-1.1,2.8c-0.7,0.7-1.7,1.1-2.7,1.1C102.7,17.9,102,17.6,101.4,17.1z"/>
	<path class="st1" d="M126.7,12.3c0.1-0.1,0.2-0.2,0.4-0.2h4.3c0.1,0,0.3,0.1,0.4,0.2c0.1,0.1,0.1,0.3,0.1,0.4l-4,32.4
		c0,0.2-0.1,0.3-0.2,0.4c-0.1,0.1-0.3,0.2-0.4,0.2H123c-0.1,0-0.3-0.1-0.4-0.2c-0.1-0.1-0.1-0.3-0.1-0.4l0.1-1.4
		c0-0.1,0-0.2-0.1-0.2s-0.1,0-0.2,0.1c-1.4,1.6-3.5,2.5-5.7,2.5c-1.9,0.1-3.9-0.5-5.4-1.8c-1.4-1.3-2.4-3-2.7-5
		c-0.2-1-0.3-2.1-0.3-3.2c0-1,0.1-1.9,0.2-2.8c0.2-2,0.7-4,1.5-5.9c0.8-2,2.2-3.7,3.9-5c1.8-1.2,3.9-1.8,6-1.8
		c2-0.1,3.8,0.8,4.9,2.4c0,0.1,0.1,0.1,0.2,0.1s0.1-0.1,0.1-0.2l1.3-10.4C126.5,12.6,126.6,12.4,126.7,12.3z M123.9,33.5
		c0.1-0.7,0.1-1.5,0.1-2.3c0-1.2-0.2-2.4-0.6-3.5c-0.5-1.3-1.8-2.2-3.3-2.1c-1.6,0-3.1,0.7-4,2c-1.2,1.7-2,3.8-2.1,5.9
		c-0.1,0.7-0.1,1.4-0.1,2.1c0,1.2,0.2,2.3,0.6,3.5c0.6,1.5,2.1,2.4,3.7,2.3c1.6,0,3.1-0.9,3.9-2.3C123.1,37.3,123.7,35.4,123.9,33.5
		L123.9,33.5z"/>
	<path class="st1" d="M150.2,21.4c0.1-0.1,0.3-0.2,0.4-0.2h4.3c0.1,0,0.3,0.1,0.4,0.2c0.1,0.1,0.1,0.3,0.1,0.4l-2.7,22.3
		c-0.5,4-1.9,6.9-4.4,8.6c-2.7,1.8-5.8,2.7-9,2.6c-1,0-1.9,0-2.9-0.1c-0.3,0-0.5-0.2-0.5-0.6l0.6-3.9c0-0.4,0.3-0.5,0.7-0.5
		c0.8,0.1,1.6,0.1,2.4,0.1c1.9,0.1,3.8-0.4,5.3-1.4c1.3-1.2,2.1-2.9,2.3-4.8v-0.4c0-0.2-0.1-0.3-0.3-0.1c-1.5,1.4-3.6,2.2-5.7,2.1
		c-1.9,0-3.7-0.5-5.3-1.6s-2.7-2.9-2.9-4.9c-0.1-0.7-0.1-1.4-0.1-2.2c0-1.2,0.1-2.4,0.2-3.6c0.2-2.1,0.7-4.1,1.5-6.1
		c0.8-1.9,2.1-3.5,3.8-4.7c1.6-1.2,3.6-1.8,5.6-1.8c2.1-0.1,4.1,0.7,5.5,2.2c0,0.1,0.1,0.1,0.1,0.1c0.1,0,0.1-0.1,0.1-0.2l0.1-1.1
		C150,21.7,150.1,21.5,150.2,21.4z M148.2,36c0.1-0.6,0.3-1.5,0.4-2.7c0.1-1,0.2-1.9,0.2-2.9c0-0.4,0-0.9-0.1-1.3
		c-0.1-1-0.5-1.9-1.2-2.5c-0.8-0.7-1.8-1-2.8-1c-1.1,0-2.1,0.3-3,1s-1.5,1.5-2,2.5c-0.6,1.3-0.9,2.8-1.1,4.2
		c-0.1,0.9-0.2,1.8-0.2,2.7c0,0.5,0,1,0.1,1.4c0.2,1,0.7,1.9,1.4,2.5c0.8,0.7,1.8,1,2.8,1c1.1,0,2.2-0.3,3.1-1
		c0.8-0.6,1.4-1.5,1.8-2.5C147.9,37.1,148.1,36.6,148.2,36L148.2,36z"/>
	<path class="st1" d="M178.3,34.9c0,0.3-0.2,0.6-0.5,0.6h-0.1h-14.5c-0.1,0-0.2,0.1-0.2,0.2c0,0,0,0,0,0.1c0,0.3,0,0.6,0,0.9
		c0,0.4,0,0.8,0.1,1.3c0.5,2.3,2.2,3.5,5,3.5c2.1,0,4.1-1,5.4-2.7c0.1-0.2,0.3-0.3,0.5-0.3c0.1,0,0.3,0,0.3,0.1l2.5,2.5
		c0.1,0.1,0.2,0.2,0.2,0.4c0,0.1-0.1,0.3-0.2,0.4c-1.1,1.4-2.6,2.5-4.2,3.3c-1.7,0.8-3.6,1.2-5.5,1.1c-2.1,0.1-4.2-0.5-6-1.7
		c-1.6-1.2-2.7-2.8-3.1-4.7c-0.3-1.2-0.5-2.4-0.5-3.7c0-0.9,0.1-1.9,0.2-2.8c0.1-1.8,0.5-3.6,1.2-5.2c0.8-2.1,2.3-4,4.2-5.3
		s4.2-2,6.5-1.9c6.1,0,9.1,3.2,9.1,9.7C178.7,32,178.5,33.5,178.3,34.9z M166,26.5c-0.9,0.6-1.5,1.5-1.9,2.5
		c-0.3,0.7-0.5,1.4-0.6,2.1c-0.1,0.2,0,0.2,0.1,0.2h9.5c0.1,0,0.2-0.1,0.2-0.2c0,0,0,0,0-0.1c0-0.3,0.1-0.7,0-1c0-0.3,0-0.5,0-0.8
		c-0.1-1-0.6-2-1.4-2.7c-0.8-0.7-1.9-1.1-3-1C167.9,25.6,166.9,25.9,166,26.5z"/>
	<path class="st1" d="M195.2,25.6c-0.1,0.1-0.3,0.2-0.4,0.2H190c-0.1,0-0.2,0.1-0.2,0.2l0,0l-1.4,11.6c0,0.3,0,0.5,0,0.8
		c-0.1,0.7,0.2,1.5,0.7,2c0.6,0.5,1.4,0.7,2.1,0.6h1.4c0.4,0,0.5,0.2,0.5,0.6l-0.5,3.6c0,0.3-0.3,0.6-0.6,0.6h-2.4
		c-1.7,0.1-3.4-0.2-5-1c-1.1-0.7-1.7-2-1.7-3.9c0-0.2,0-0.6,0.1-1.3l1.7-13.7c0-0.1-0.1-0.2-0.2-0.2h-2.6c-0.4,0-0.5-0.2-0.5-0.6
		l0.4-3.4c0-0.2,0.1-0.3,0.2-0.4c0.1-0.1,0.3-0.2,0.4-0.2h2.6c0.1,0,0.3-0.1,0.3-0.2l0.7-5.6c0-0.2,0.1-0.3,0.2-0.4
		c0.1-0.1,0.3-0.2,0.4-0.2h4.1c0.1,0,0.3,0.1,0.4,0.2c0.1,0.1,0.1,0.3,0.1,0.4l-0.7,5.6c-0.1,0.2,0,0.2,0.2,0.2h4.6
		c0.1,0,0.3,0.1,0.4,0.2c0.1,0.1,0.1,0.3,0.1,0.4l-0.5,3.3C195.4,25.3,195.3,25.4,195.2,25.6z"/>
	<path class="st1" d="M197.2,45.6c-0.1-0.1-0.1-0.3-0.1-0.4l4-32.4c0-0.2,0.1-0.3,0.2-0.4c0.1-0.1,0.2-0.2,0.4-0.2h4.3
		c0.1,0,0.3,0.1,0.4,0.2c0.1,0.1,0.1,0.3,0.1,0.4l-1.8,14.4c0,0.1,0,0.2,0,0.2s0.1,0,0.2,0l13.9-14.7c0.2-0.2,0.4-0.3,0.7-0.3h4.9
		c0.3,0,0.4,0.1,0.4,0.3s-0.1,0.3-0.2,0.4l-12.3,13.4c-0.1,0.1-0.2,0.2-0.1,0.3l9.2,18.4c0.1,0.1,0.1,0.2,0.1,0.3
		c0,0.3-0.2,0.4-0.5,0.4h-4.9c-0.3,0-0.5-0.2-0.6-0.4l-7.4-14.8c0-0.1-0.1-0.1-0.1-0.1c-0.1,0-0.1,0-0.1,0.1l-4,4.1l-0.1,0.3
		l-1.3,10.2c0,0.2-0.1,0.3-0.2,0.4c-0.1,0.1-0.3,0.2-0.4,0.2h-4.3C197.4,45.8,197.3,45.7,197.2,45.6z"/>
	<path class="st1" d="M224.6,45.6c-0.1-0.1-0.1-0.3-0.1-0.4l2.9-23.4c0-0.2,0.1-0.3,0.2-0.4c0.1-0.1,0.3-0.2,0.4-0.2h4.3
		c0.1,0,0.3,0.1,0.4,0.2c0.1,0.1,0.1,0.3,0.1,0.4L230,45.2c0,0.2-0.1,0.3-0.2,0.4c-0.1,0.1-0.3,0.2-0.4,0.2H225
		C224.9,45.8,224.7,45.7,224.6,45.6z M228.6,17.1c-0.5-0.6-0.8-1.3-0.8-2.1c0-1,0.4-2,1.1-2.8c0.7-0.7,1.7-1.1,2.7-1.1
		c0.8,0,1.5,0.3,2.1,0.8c0.6,0.6,0.9,1.3,0.8,2.1c0,1-0.4,2-1.1,2.8c-0.7,0.7-1.7,1.2-2.7,1.1C229.9,17.9,229.1,17.6,228.6,17.1z"/>
	<path class="st1" d="M249.8,25.6c-0.1,0.1-0.3,0.2-0.4,0.2h-4.8c-0.1,0-0.2,0.1-0.2,0.2l0,0L243,37.6c0,0.3-0.1,0.5,0,0.8
		c-0.1,0.7,0.2,1.5,0.7,2c0.6,0.5,1.4,0.7,2.1,0.6h1.4c0.4,0,0.5,0.2,0.5,0.6l-0.5,3.6c0,0.3-0.3,0.6-0.6,0.6h-2.4
		c-1.7,0.1-3.4-0.2-5-1c-1.1-0.7-1.7-2-1.7-3.9c0-0.2,0-0.6,0.1-1.3l1.7-13.7c0-0.1-0.1-0.2-0.2-0.2h-2.6c-0.4,0-0.5-0.2-0.5-0.6
		l0.4-3.4c0-0.2,0.1-0.3,0.2-0.4c0.1-0.1,0.3-0.2,0.4-0.2h2.6c0.1,0,0.2-0.1,0.3-0.2l0.7-5.6c0-0.2,0.1-0.3,0.2-0.4
		c0.1-0.1,0.3-0.2,0.4-0.2h4.1c0.1,0,0.3,0.1,0.4,0.2c0.1,0.1,0.1,0.3,0.1,0.4L245,21c-0.1,0.2,0,0.2,0.2,0.2h4.8
		c0.1,0,0.3,0.1,0.4,0.2c0.1,0.1,0.1,0.3,0.1,0.4l-0.4,3.4C250,25.3,249.9,25.5,249.8,25.6z"/>
</g>
<g>
	<path class="st2" d="M317.1,45.5h-57c-1,0-1.7-0.8-1.7-1.7v-30c0-1,0.8-1.7,1.7-1.7h57c1,0,1.7,0.8,1.7,1.7v30
		C318.8,44.7,318,45.5,317.1,45.5z"/>
</g>
<g>
	<path class="st3" d="M274.7,18.8c4.9,0,7.8,2.5,7.8,6.7c0,4.5-2.8,7.1-7.8,7.1h-4.5v6h-3.3V18.8H274.7z M270.2,29.6h4.4
		c3,0,4.7-1.3,4.7-4c0-2.6-1.7-3.8-4.7-3.8h-4.4V29.6z"/>
	<path class="st3" d="M289,26.6c1-2,2.8-3.1,5.2-3.1v3.1c-3-0.2-4.9,1.6-5.2,4.2v7.8h-3.2v-15h3.2V26.6z"/>
	<path class="st3" d="M311.3,31.1c0,4.5-3.2,7.6-7.8,7.6c-4.6,0-7.8-3.1-7.8-7.6s3.2-7.6,7.8-7.6C308.1,23.5,311.3,26.5,311.3,31.1z
		 M298.9,31.1c0,2.9,1.9,4.9,4.6,4.9s4.5-2,4.5-4.9s-1.9-4.9-4.5-4.9C300.8,26.3,298.9,28.2,298.9,31.1z"/>
</g>
</svg>
