<svg width="20px" height="20px" xmlns="http://www.w3.org/2000/svg" viewBox="0 0 20 20">
  <title>wk-icon-white</title>
  <rect width="20" height="20" rx="3" ry="3" style="fill: #fff"/>
  <path d="M17.59,8.74l-1.85,1.85A6.15,6.15,0,0,1,8.8,15.84l-.19,0L11,13.42a6.4,6.4,0,0,0-.58-1.74L6.49,15.59h0l-.86.86A7.93,7.93,0,0,0,17.56,8.74ZM9.2,10a6.5,6.5,0,0,0-.59-.52L2,16.12H2a.82.82,0,0,0,1.17,1.15l0,0h0L9.79,10.6A6.73,6.73,0,0,0,9.2,10Zm-5.54,2.8h0l4-4a6.45,6.45,0,0,0-1.7-.61L3.55,10.58A6.15,6.15,0,0,1,8.44,3.7l2-2A7.93,7.93,0,0,0,2.85,13.59ZM10.23,9a6.89,6.89,0,0,1,1.93,3.74L17.5,7.42l-.38-5.35-5.41-.15L6.53,7.09A6.9,6.9,0,0,1,10.23,9Zm2.93-.94-.84-.84.83-.83.84.84Zm2-2-.84.84-.84-.84.84-.84Zm-2-2,.83.83-.84.84-.83-.83ZM12,5.26l.83.83L12,6.92l-.81-.84Z" transform="translate(0)" style="fill: #2d2d2d"/>
</svg>
