<?xml version="1.0" encoding="utf-8"?>
<!-- Generator: Adobe Illustrator 24.0.1, SVG Export Plug-In . SVG Version: 6.00 Build 0)  -->
<svg version="1.1" id="Layer_1" xmlns="http://www.w3.org/2000/svg" xmlns:xlink="http://www.w3.org/1999/xlink" x="0px" y="0px"
	 width="18px" height="18px" viewBox="0 0 18 18" style="enable-background:new 0 0 18 18;" xml:space="preserve">
<style type="text/css">
	.st0{fill-rule:evenodd;clip-rule:evenodd;fill:#23282D;}
	.st1{fill-rule:evenodd;clip-rule:evenodd;fill:#9EA3A8;}
</style>
<g>
	<path class="st0" d="M17.2,16c-0.4,0-0.8-0.3-0.8-0.8v-0.8V14c-1.6,2.4-4.3,4-7.5,4c-5,0-9-4-9-9s4-9,9-9c3.1,0,5.8,1.6,7.5,4V3.8
		v0l0,0c0-0.4,0.4-0.7,0.8-0.7S18,3.4,18,3.8l0,0v0V5v9.5v0.8C18,15.6,17.7,16,17.2,16z M9,1.5C4.9,1.5,1.5,4.9,1.5,9
		s3.4,7.5,7.5,7.5s7.5-3.4,7.5-7.5S13.1,1.5,9,1.5z"/>
	<g>
		<g>
			<path class="st1" d="M5.9,8.4c-0.5,0-0.9,0.4-0.9,0.9v2.9c0,0.5,0.4,0.9,0.9,0.9s0.9-0.4,0.9-0.9V9.3C6.7,8.8,6.3,8.4,5.9,8.4z
				 M9,7C8.5,7,8.1,7.4,8.1,7.9v4.3C8.1,12.7,8.5,13,9,13s0.9-0.4,0.9-0.9V7.9C9.9,7.4,9.5,7,9,7z M12.1,4.9c-0.5,0-0.9,0.4-0.9,0.9
				v6.4c0,0.5,0.4,0.9,0.9,0.9s0.9-0.4,0.9-0.9V5.8C12.9,5.3,12.6,4.9,12.1,4.9z"/>
		</g>
	</g>
</g>
</svg>
